<svg viewBox="0 0 72 18" fill="none" xmlns="http://www.w3.org/2000/svg">
    <path
      d="M6.0714 11.2764L0 0L4.9518 2.89333L8.3115 3.07022L11.4354 1.47644L16.8588 4.72356L19.3347 3.77867L22.3407 8.20711L18.45 10.2142L16.7409 13.52L10.9053 16L9.0783 11.6311L6.0723 11.2764H6.0714Z"
      fill="#343A40"
    />
    <path
      d="M11.2565 14.82L9.62656 10.8893L6.68986 10.4938L6.72046 10.2733L6.52336 10.3809L4.93216 7.54709L2.16016 2.52664L2.35816 2.41998L2.47876 2.23242L4.96186 3.78531L8.73106 3.90887L11.3843 2.51953L16.7087 5.67687L18.9083 4.92664L18.9821 5.13642L19.1693 5.01375L21.1394 7.94264L17.7356 9.5542L16.2371 12.6715L16.0337 12.5764L16.1174 12.7826L13.8773 13.668L11.2565 14.8209V14.82ZM10.0505 10.74L11.4968 14.228L13.7018 13.2582L15.7358 12.4538L13.538 7.3542L10.0496 10.7409L10.0505 10.74ZM14.1014 7.52575L16.0436 12.0342L17.2757 9.47153L14.1014 7.52575ZM7.10746 10.1009L9.70486 10.4511L13.0898 7.16487L11.0117 7.07064L11.0225 6.84842L11.0081 7.07064L9.25036 6.96042L7.10746 10.1009ZM2.97736 3.07864L5.32546 7.33198L6.73846 9.84753L8.82196 6.7942L2.97736 3.07864ZM14.1365 7.02353L17.579 9.13375L20.4761 7.7622L18.8885 5.4022L16.6547 6.16398L14.1356 7.02353H14.1365ZM11.2673 6.63687L13.583 6.74264L16.1516 5.8662L11.5832 3.15687L11.2673 6.63687ZM9.20806 6.51153L10.5221 6.5942L8.67166 4.35064L5.65396 4.25198L9.20806 6.51153ZM9.12976 4.20131L10.847 6.28398L11.1314 3.15331L9.12976 4.20131Z"
      fill="white"
    />
    <path
      d="M27.4021 6.22656L28.2265 7.7439L29.0734 6.22656H30.4873L29.0779 8.66656L30.5512 11.2177H29.1328L28.2346 9.61234L27.3364 11.2177H25.918L27.3913 8.66656L25.9819 6.22656H27.4003H27.4021Z"
      fill="black"
    />
    <path
      d="M33.3334 11.3107C32.9464 11.3107 32.5999 11.2493 32.293 11.1258C31.9861 10.9996 31.7251 10.8262 31.51 10.6049C31.2985 10.3836 31.1356 10.1267 31.0222 9.83423C30.9088 9.53912 30.8521 9.22534 30.8521 8.8929V8.70801C30.8521 8.33023 30.9061 7.98357 31.0132 7.66979C31.1203 7.35601 31.2742 7.08401 31.474 6.85379C31.6765 6.62357 31.9222 6.44668 32.2111 6.32312C32.5 6.1969 32.8249 6.13379 33.1876 6.13379C33.5503 6.13379 33.8536 6.19246 34.1272 6.3089C34.4008 6.42534 34.6294 6.59157 34.813 6.80668C35.0002 7.02179 35.1415 7.28046 35.2369 7.58179C35.3323 7.88046 35.38 8.21201 35.38 8.57823V9.13201H31.42V8.24668H34.0768V8.14534C34.0768 7.96046 34.0426 7.79601 33.9751 7.65201C33.9103 7.50446 33.8122 7.38712 33.6808 7.30179C33.5485 7.21557 33.3802 7.1729 33.1741 7.1729C32.9986 7.1729 32.8483 7.21112 32.7223 7.28846C32.5963 7.3649 32.4937 7.47334 32.4136 7.61112C32.3371 7.74979 32.2786 7.91246 32.239 8.10001C32.2021 8.2849 32.1841 8.48757 32.1841 8.7089V8.89379C32.1841 9.09379 32.212 9.27779 32.2669 9.44757C32.3254 9.61646 32.4064 9.76312 32.5108 9.88579C32.6179 10.0085 32.7475 10.1045 32.8978 10.172C33.0508 10.2396 33.2245 10.2733 33.418 10.2733C33.6574 10.2733 33.8797 10.2271 34.0858 10.1347C34.2946 10.0396 34.4746 9.89646 34.6249 9.70534L35.2693 10.4067C35.1649 10.5578 35.0218 10.7018 34.8409 10.8405C34.6627 10.9791 34.4476 11.0929 34.1965 11.1818C33.9445 11.268 33.6574 11.3107 33.3352 11.3107H33.3334Z"
      fill="black"
    />
    <path
      d="M35.9219 8.77299V8.6761C35.9219 8.30988 35.9741 7.97388 36.0785 7.66632C36.1829 7.3561 36.335 7.08677 36.5348 6.85921C36.7346 6.63165 36.9803 6.45477 37.2719 6.32854C37.5635 6.19965 37.8983 6.13477 38.2754 6.13477C38.6525 6.13477 38.9891 6.19965 39.2843 6.32854C39.5786 6.45477 39.8261 6.63165 40.0259 6.85921C40.2284 7.08677 40.3823 7.3561 40.4867 7.66632C40.5911 7.97388 40.6433 8.31077 40.6433 8.6761V8.77299C40.6433 9.13565 40.5911 9.47254 40.4867 9.78277C40.3823 10.0903 40.2284 10.3597 40.0259 10.5899C39.8261 10.8174 39.5804 10.9943 39.2888 11.1205C38.9972 11.2468 38.6624 11.3099 38.2853 11.3099C37.9082 11.3099 37.5716 11.2468 37.2764 11.1205C36.9848 10.9943 36.7373 10.8174 36.5348 10.5899C36.335 10.3597 36.1838 10.0903 36.0785 9.78277C35.9741 9.47254 35.9219 9.13565 35.9219 8.77299ZM37.2485 8.6761V8.77299C37.2485 8.98188 37.2674 9.17743 37.3034 9.35877C37.3403 9.5401 37.3988 9.7001 37.478 9.83877C37.5608 9.97388 37.6688 10.0805 37.8002 10.157C37.9325 10.2334 38.0936 10.2725 38.2835 10.2725C38.4734 10.2725 38.6255 10.2343 38.7578 10.157C38.8901 10.0805 38.9954 9.97388 39.0755 9.83877C39.1556 9.7001 39.2141 9.5401 39.2501 9.35877C39.2897 9.17743 39.3104 8.98188 39.3104 8.77299V8.6761C39.3104 8.47343 39.2906 8.28232 39.2501 8.10454C39.2132 7.92321 39.1538 7.76321 39.071 7.62454C38.9909 7.48321 38.8856 7.3721 38.7533 7.2921C38.621 7.2121 38.4617 7.1721 38.2745 7.1721C38.0873 7.1721 37.9271 7.2121 37.7957 7.2921C37.667 7.3721 37.5608 7.48232 37.478 7.62454C37.3979 7.76321 37.3403 7.92321 37.3034 8.10454C37.2665 8.28321 37.2485 8.47343 37.2485 8.6761Z"
      fill="black"
    />
    <path
      d="M42.7831 4.12793V11.2177H41.4565V4.12793H42.7831ZM45.9241 6.2266L43.7596 8.6986L42.5995 9.8746L42.1162 8.91549L43.0369 7.74393L44.3311 6.2266H45.9241ZM44.5471 11.2177L43.0738 8.91193L43.99 8.10926L46.0762 11.2177H44.5471Z"
      fill="black"
    />
    <path
      d="M47.8953 6.22661V11.2177H46.5642V6.22661H47.8953ZM46.4814 4.92617C46.4814 4.73239 46.5489 4.57239 46.6839 4.44617C46.8189 4.31995 46.9998 4.25684 47.2275 4.25684C47.4552 4.25684 47.6316 4.31995 47.7666 4.44617C47.9043 4.57239 47.9736 4.73239 47.9736 4.92617C47.9736 5.11995 47.9043 5.27995 47.7666 5.40617C47.6316 5.53239 47.4516 5.5955 47.2275 5.5955C47.0034 5.5955 46.8189 5.53239 46.6839 5.40617C46.5489 5.27995 46.4814 5.11995 46.4814 4.92617Z"
      fill="black"
    />
    <path
      d="M51.4314 6.22623V7.16756H48.5298V6.22623H51.4314ZM49.2489 4.99512H50.5755V9.71334C50.5755 9.85823 50.5944 9.96845 50.6304 10.0458C50.67 10.1231 50.7285 10.1765 50.8059 10.2076C50.8824 10.2351 50.9796 10.2493 51.0957 10.2493C51.1785 10.2493 51.2523 10.2467 51.3171 10.2405C51.3846 10.2316 51.4413 10.2218 51.4872 10.2129L51.4917 11.1907C51.3783 11.228 51.255 11.2565 51.1236 11.2787C50.9913 11.3 50.8455 11.3107 50.6862 11.3107C50.3946 11.3107 50.1399 11.2627 49.9221 11.1676C49.707 11.0689 49.5414 10.9125 49.4244 10.6973C49.3074 10.4822 49.2498 10.1996 49.2498 9.84845V4.99512H49.2489Z"
      fill="black"
    />
    <path
      d="M58.0832 9.46082C58.0832 9.34082 58.0652 9.23327 58.0283 9.13816C57.9941 9.03949 57.9302 8.9506 57.8348 8.8706C57.7394 8.78793 57.6062 8.70616 57.4343 8.62616C57.2624 8.54616 57.0401 8.46349 56.7665 8.37727C56.4623 8.2786 56.1743 8.16838 55.9007 8.04482C55.6307 7.92216 55.3913 7.77905 55.1825 7.61549C54.9764 7.44927 54.8144 7.25727 54.6947 7.0386C54.5777 6.81993 54.5201 6.5666 54.5201 6.27771C54.5201 5.98882 54.5813 5.74438 54.7046 5.51682C54.827 5.2866 54.9998 5.08927 55.2203 4.9266C55.4417 4.76038 55.7027 4.63327 56.0033 4.54349C56.3075 4.4546 56.6405 4.41016 57.0023 4.41016C57.4964 4.41016 57.9275 4.49904 58.2965 4.67771C58.6646 4.85638 58.9508 5.10082 59.1533 5.41104C59.3585 5.72127 59.462 6.07682 59.462 6.47682H58.0895C58.0895 6.28038 58.0481 6.10793 57.9653 5.96038C57.8852 5.80927 57.7628 5.69105 57.5972 5.60482C57.4343 5.5186 57.2291 5.47593 56.9798 5.47593C56.7305 5.47593 56.5406 5.51327 56.3813 5.58704C56.222 5.65816 56.1014 5.75505 56.0222 5.87771C55.9421 5.99771 55.9025 6.13282 55.9025 6.28393C55.9025 6.39771 55.9304 6.50082 55.9853 6.59327C56.0438 6.68571 56.1293 6.77193 56.2427 6.85193C56.3561 6.93193 56.4965 7.00749 56.6621 7.07771C56.8277 7.14793 57.0194 7.21727 57.2381 7.28571C57.6035 7.39682 57.9239 7.52127 58.2002 7.65905C58.4792 7.79771 58.7132 7.95238 58.9004 8.12482C59.0876 8.29727 59.2289 8.49193 59.3243 8.7106C59.4197 8.92927 59.4674 9.17638 59.4674 9.45282C59.4674 9.74527 59.4107 10.0066 59.2973 10.2368C59.1839 10.467 59.0192 10.6626 58.805 10.8226C58.5899 10.9826 58.3334 11.1044 58.0355 11.187C57.7376 11.2697 57.4046 11.3115 57.0365 11.3115C56.7053 11.3115 56.3777 11.2688 56.0555 11.1826C55.7333 11.0937 55.4399 10.9595 55.1762 10.7817C54.9152 10.603 54.7064 10.3755 54.5498 10.099C54.3932 9.8226 54.3149 9.4946 54.3149 9.11682H55.7009C55.7009 9.32571 55.7333 9.5026 55.7972 9.64749C55.862 9.79238 55.952 9.90882 56.069 9.99771C56.1887 10.0866 56.33 10.1515 56.4929 10.1915C56.6585 10.2315 56.8394 10.251 57.0365 10.251C57.2759 10.251 57.4721 10.2173 57.626 10.1497C57.7826 10.0822 57.8978 9.98793 57.9716 9.86793C58.0481 9.74793 58.0868 9.61282 58.0868 9.46171L58.0832 9.46082Z"
      fill="#7A7A7A"
    />
    <path
      d="M62.4626 11.2175H61.0028L61.0118 10.1384H62.4626C62.8253 10.1384 63.1304 10.0566 63.3788 9.89395C63.6272 9.72773 63.8144 9.48684 63.9404 9.16951C64.0691 8.85306 64.1339 8.46995 64.1339 8.02106V7.69395C64.1339 7.34995 64.097 7.04684 64.0232 6.78551C63.953 6.52417 63.8468 6.30462 63.7055 6.12595C63.5642 5.94729 63.3905 5.81395 63.1853 5.72506C62.9792 5.63262 62.7434 5.5864 62.4761 5.5864H60.9749V4.50284H62.4761C62.9243 4.50284 63.3338 4.57929 63.7055 4.73306C64.0799 4.88418 64.4039 5.10018 64.6775 5.38373C64.9511 5.6664 65.1608 6.00506 65.3084 6.39884C65.4587 6.78906 65.5343 7.22462 65.5343 7.70462V8.02284C65.5343 8.49929 65.4596 8.93484 65.3084 9.32862C65.1608 9.7224 64.9511 10.0602 64.6775 10.3437C64.4075 10.6237 64.0835 10.8406 63.7055 10.9944C63.3311 11.1446 62.9162 11.2202 62.4617 11.2202L62.4626 11.2175ZM61.7858 4.50195V11.2175H60.4043V4.50195H61.7858Z"
      fill="#7A7A7A"
    />
    <path
      d="M67.9196 4.50195V11.2175H66.5381V4.50195H67.9196ZM71.9354 4.50195L69.2786 7.8184L67.745 9.46995L67.4966 8.15973L68.5325 6.73929L70.2407 4.50195H71.9354ZM70.3649 11.2175L68.3894 8.11351L69.4118 7.25573L72.0002 11.2175H70.3658H70.3649Z"
      fill="#7A7A7A"
    />
  </svg>
