<?xml version="1.0" encoding="UTF-8"?>
<svg id="Layer_2" data-name="Layer 2" xmlns="http://www.w3.org/2000/svg" viewBox="0 0 650.39 143.38">
  <defs>
    <style>
      .cls-1 {
        fill: #fff;
      }

      .cls-2 {
        fill: #100521;
      }

      .cls-3 {
        fill: #6e12ff;
      }
    </style>
  </defs>
  <g id="Layer_2-2" data-name="Layer 2">
    <g>
      <g>
        <path class="cls-2" d="M232.62,58.76l9.33-16.55h15.83l-15.78,27.16,16.45,28.29h-15.89l-9.89-17.42-9.84,17.42h-15.94l16.45-28.29-15.73-27.16h15.89l9.12,16.55h0Z"/>
        <path class="cls-2" d="M290.42,98.68c-8.13,0-14.75-2.49-19.86-7.48-5.11-4.99-7.66-11.63-7.66-19.93v-1.43c0-5.57,1.08-10.55,3.23-14.94,2.15-4.39,5.2-7.77,9.14-10.14s8.44-3.56,13.5-3.56c7.58,0,13.55,2.39,17.91,7.17,4.35,4.79,6.53,11.56,6.53,20.35v6.04h-35.3c.48,3.62,1.92,6.53,4.33,8.71,2.41,2.19,5.46,3.28,9.14,3.28,5.7,0,10.17-2.06,13.38-6.2l7.28,8.15c-2.22,3.14-5.23,5.6-9.02,7.35s-8,2.64-12.61,2.64h0Zm-1.69-45.56c-2.94,0-5.32,.99-7.15,2.99-1.83,1.99-3,4.84-3.51,8.54h20.6v-1.18c-.07-3.3-.96-5.84-2.67-7.64s-4.13-2.7-7.28-2.7h0Z"/>
        <path class="cls-2" d="M319.32,69.42c0-5.5,1.06-10.4,3.18-14.71s5.16-7.63,9.14-9.99c3.98-2.36,8.6-3.53,13.86-3.53,7.48,0,13.59,2.29,18.32,6.86s7.37,10.8,7.92,18.65l.1,3.79c0,8.51-2.37,15.33-7.12,20.47-4.75,5.14-11.12,7.71-19.11,7.71s-14.37-2.56-19.14-7.69c-4.76-5.12-7.15-12.1-7.15-20.9v-.66h0Zm14.81,1.05c0,5.27,.99,9.3,2.97,12.08,1.98,2.79,4.81,4.18,8.51,4.18s6.39-1.38,8.4-4.13c2.01-2.76,3.02-7.16,3.02-13.22,0-5.16-1.01-9.17-3.02-12.01s-4.85-4.26-8.51-4.26-6.42,1.41-8.4,4.23c-1.98,2.83-2.97,7.19-2.97,13.11h0Z"/>
        <path class="cls-3" d="M400.95,79.56l10.3-37.35h15.48l-18.7,55.45h-14.14l-18.7-55.45h15.48l10.3,37.35h0Z"/>
        <path class="cls-3" d="M433.13,27.86c0-2.22,.74-4.05,2.23-5.49,1.48-1.43,3.51-2.15,6.07-2.15s4.54,.72,6.04,2.15,2.25,3.26,2.25,5.49-.76,4.1-2.28,5.53-3.53,2.15-6.02,2.15-4.5-.72-6.02-2.15-2.28-3.28-2.28-5.53h0Zm15.73,69.8h-14.86V42.21h14.86v55.45Z"/>
        <path class="cls-3" d="M491.08,82.33c0-1.81-.9-3.24-2.69-4.28-1.79-1.04-4.67-1.97-8.63-2.79-13.19-2.77-19.78-8.37-19.78-16.81,0-4.92,2.04-9.03,6.12-12.32s9.42-4.95,16.01-4.95c7.04,0,12.66,1.66,16.88,4.97,4.22,3.32,6.33,7.62,6.33,12.92h-14.81c0-2.12-.69-3.87-2.05-5.25s-3.51-2.08-6.41-2.08c-2.49,0-4.42,.57-5.79,1.69-1.36,1.13-2.05,2.56-2.05,4.3,0,1.64,.78,2.97,2.33,3.97,1.55,1.01,4.18,1.88,7.86,2.62,3.69,.73,6.8,1.56,9.33,2.48,7.82,2.87,11.73,7.84,11.73,14.91,0,5.06-2.17,9.14-6.51,12.27-4.34,3.13-9.94,4.69-16.81,4.69-4.65,0-8.77-.83-12.38-2.48s-6.43-3.92-8.48-6.81-3.07-6-3.07-9.35h14.04c.13,2.63,1.11,4.65,2.92,6.04,1.81,1.4,4.23,2.1,7.28,2.1,2.83,0,4.98-.54,6.43-1.62s2.18-2.48,2.18-4.23h0Z"/>
        <path class="cls-3" d="M514.91,27.86c0-2.22,.74-4.05,2.23-5.49,1.48-1.43,3.51-2.15,6.07-2.15s4.54,.72,6.04,2.15,2.25,3.26,2.25,5.49-.76,4.1-2.28,5.53-3.53,2.15-6.02,2.15-4.5-.72-6.02-2.15-2.28-3.28-2.28-5.53h0Zm15.73,69.8h-14.86V42.21h14.86v55.45Z"/>
        <path class="cls-3" d="M540.53,69.42c0-5.5,1.06-10.4,3.18-14.71,2.12-4.3,5.16-7.63,9.14-9.99,3.98-2.36,8.6-3.53,13.86-3.53,7.48,0,13.59,2.29,18.32,6.86,4.73,4.58,7.37,10.8,7.92,18.65l.1,3.79c0,8.51-2.37,15.33-7.12,20.47-4.75,5.14-11.12,7.71-19.11,7.71s-14.37-2.56-19.14-7.69c-4.76-5.12-7.15-12.1-7.15-20.9v-.66h0Zm14.81,1.05c0,5.27,.99,9.3,2.97,12.08,1.98,2.79,4.81,4.18,8.51,4.18s6.39-1.38,8.4-4.13c2.01-2.76,3.02-7.16,3.02-13.22,0-5.16-1.01-9.17-3.02-12.01s-4.85-4.26-8.51-4.26-6.42,1.41-8.4,4.23c-1.98,2.83-2.97,7.19-2.97,13.11h0Z"/>
        <path class="cls-3" d="M615.81,42.21l.46,6.41c3.96-4.95,9.28-7.43,15.94-7.43,5.88,0,10.25,1.73,13.12,5.18,2.87,3.45,4.34,8.61,4.41,15.48v35.82h-14.81V62.2c0-3.14-.69-5.42-2.05-6.84s-3.64-2.13-6.81-2.13c-4.17,0-7.3,1.78-9.38,5.33v39.1h-14.81V42.21h13.94Z"/>
      </g>
      <path class="cls-3" d="M47.22,88.71L0,0,38.48,22.74l26.1,1.4,24.28-12.52,42.19,25.54,19.24-7.42,23.37,34.84-30.22,15.81-13.29,26.03-45.34,19.52-14.2-34.42s-23.37-2.8-23.37-2.8Z"/>
      <polygon class="cls-1" points="68.23 34.21 37.53 33.22 17.4 20.51 19.26 17.55 38.59 29.75 68.34 30.71 68.23 34.21"/>
      <rect class="cls-1" x="42.93" y="4.67" width="3.5" height="62.67" transform="translate(-9.79 54.06) rotate(-57.21)"/>
      <polygon class="cls-1" points="75.89 85.76 51.16 82.42 38.35 59.41 16.79 19.87 19.87 18.19 41.42 57.72 53.37 79.19 76.35 82.29 75.89 85.76"/>
      <rect class="cls-1" x="44.84" y="65.11" width="33.67" height="3.5" transform="translate(-28.24 80.62) rotate(-56.01)"/>
      <rect class="cls-1" x="70.07" y="67.72" width="41.75" height="3.5" transform="translate(-22.62 83.59) rotate(-44.46)"/>
      <polygon class="cls-1" points="87.5 116.65 74.43 84.76 77.67 83.43 89.37 111.99 106.54 104.33 123.39 97.56 134.92 73.07 138.08 74.55 125.96 100.29 107.9 107.55 87.5 116.65"/>
      <rect class="cls-1" x="113.48" y="52.83" width="3.5" height="48.02" transform="translate(-20.94 51.54) rotate(-23.17)"/>
      <rect class="cls-1" x="119.46" y="46.3" width="3.5" height="36.13" transform="translate(2.66 133.5) rotate(-58.22)"/>
      <polygon class="cls-1" points="129.51 48.51 88.38 23.84 69.1 34.08 67.47 30.99 88.48 19.82 129.91 44.68 146.98 38.79 148.13 42.09 129.51 48.51"/>
      <polygon class="cls-1" points="137.32 75.46 135.81 72.31 159.19 61.07 146.85 42.53 106.43 56.5 105.28 53.2 148.26 38.35 164.32 62.48 137.32 75.46"/>
      <rect class="cls-1" x="75.24" y="29.43" width="3.5" height="27.6" transform="translate(-10.01 58.3) rotate(-39.14)"/>
      <rect class="cls-1" x="76.61" y="46.06" width="3.5" height="14.72" transform="translate(20.21 128.33) rotate(-86.46)"/>
      <rect class="cls-1" x="94.03" y="44.24" width="3.5" height="20.17" transform="translate(37.2 147.56) rotate(-87.42)"/>
      <rect class="cls-1" x="71.69" y="36.8" width="30.76" height="3.5" transform="translate(40.95 121.86) rotate(-84.91)"/>
      <polygon class="cls-1" points="17.86 21.82 13.17 13.69 21.49 18.95 17.86 21.82"/>
    </g>
    <g>
      <polygon class="cls-2" points="568.36 143.38 345.71 143.38 354.51 106.55 577.15 106.55 568.36 143.38"/>
      <g>
        <path class="cls-1" d="M371.85,126.84v6.38h-2.15v-16.31h6.02c1.78,0,3.18,.45,4.19,1.37s1.51,2.11,1.51,3.62-.49,2.8-1.48,3.66c-.99,.86-2.4,1.28-4.25,1.28h-3.84Zm0-1.76h3.86c1.15,0,2.03-.27,2.64-.81,.62-.54,.91-1.33,.91-2.35s-.31-1.75-.91-2.33c-.62-.58-1.45-.88-2.52-.91h-3.98v6.4h0Z"/>
        <path class="cls-1" d="M383.15,127.05c0-1.19,.23-2.25,.7-3.21,.47-.95,1.12-1.68,1.95-2.19,.83-.52,1.78-.77,2.85-.77,1.65,0,2.99,.57,4,1.72s1.53,2.66,1.53,4.56v.15c0,1.18-.23,2.23-.68,3.17s-1.1,1.67-1.94,2.19-1.81,.79-2.9,.79c-1.64,0-2.97-.57-3.99-1.72s-1.53-2.66-1.53-4.53v-.15h0Zm2.08,.24c0,1.34,.31,2.42,.93,3.24,.62,.81,1.46,1.22,2.5,1.22s1.89-.41,2.51-1.24c.62-.83,.93-1.98,.93-3.47,0-1.33-.32-2.4-.95-3.23-.63-.83-1.47-1.24-2.51-1.24s-1.85,.4-2.48,1.22-.94,1.98-.94,3.49h0Z"/>
        <path class="cls-1" d="M407.51,130.36l2.33-9.26h2.07l-3.53,12.11h-1.68l-2.95-9.18-2.87,9.18h-1.68l-3.51-12.11h2.06l2.39,9.07,2.83-9.07h1.67l2.87,9.26h0Z"/>
        <path class="cls-1" d="M419.04,133.45c-1.64,0-2.98-.54-4.01-1.62s-1.55-2.52-1.55-4.32v-.38c0-1.2,.23-2.28,.69-3.22,.46-.95,1.1-1.68,1.93-2.22s1.72-.8,2.68-.8c1.58,0,2.8,.52,3.68,1.55s1.31,2.53,1.31,4.45v.86h-8.21c.03,1.19,.38,2.16,1.04,2.9s1.51,1.1,2.55,1.1c.73,0,1.35-.15,1.86-.45,.51-.3,.96-.7,1.34-1.19l1.26,.99c-1.01,1.56-2.53,2.34-4.57,2.34h0Zm-.26-10.86c-.83,0-1.54,.31-2.11,.91-.57,.61-.91,1.47-1.05,2.56h6.07v-.15c-.06-1.05-.34-1.87-.85-2.45s-1.2-.87-2.06-.87h0Z"/>
        <path class="cls-1" d="M432.02,122.96c-.32-.05-.66-.08-1.02-.08-1.36,0-2.28,.57-2.77,1.73v8.6h-2.07v-12.11h2.02l.03,1.4c.68-1.08,1.64-1.63,2.89-1.63,.4,0,.71,.05,.91,.15v1.93h0Z"/>
        <path class="cls-1" d="M438.74,133.45c-1.64,0-2.98-.54-4.01-1.62s-1.55-2.52-1.55-4.32v-.38c0-1.2,.23-2.28,.69-3.22,.46-.95,1.1-1.68,1.93-2.22s1.72-.8,2.68-.8c1.58,0,2.8,.52,3.68,1.55s1.31,2.53,1.31,4.45v.86h-8.21c.03,1.19,.38,2.16,1.04,2.9s1.51,1.1,2.55,1.1c.73,0,1.35-.15,1.86-.45,.51-.3,.96-.7,1.34-1.19l1.26,.99c-1.01,1.56-2.53,2.34-4.57,2.34h0Zm-.26-10.86c-.83,0-1.54,.31-2.11,.91-.57,.61-.91,1.47-1.05,2.56h6.07v-.15c-.06-1.05-.34-1.87-.85-2.45s-1.2-.87-2.06-.87h0Z"/>
        <path class="cls-1" d="M445.35,127.06c0-1.86,.44-3.35,1.32-4.49s2.03-1.69,3.46-1.69,2.54,.49,3.37,1.46v-6.32h2.07v17.2h-1.9l-.1-1.3c-.83,1.01-1.98,1.52-3.46,1.52s-2.55-.57-3.43-1.72-1.33-2.65-1.33-4.5v-.15h0Zm2.07,.23c0,1.38,.28,2.45,.85,3.22,.57,.78,1.35,1.17,2.35,1.17,1.31,0,2.28-.59,2.87-1.77v-5.56c-.62-1.14-1.57-1.72-2.86-1.72-1.01,0-1.81,.39-2.37,1.17s-.85,1.94-.85,3.48h0Z"/>
        <path class="cls-1" d="M474.73,127.3c0,1.85-.43,3.34-1.28,4.46s-1.99,1.68-3.42,1.68c-1.53,0-2.71-.54-3.55-1.63l-.1,1.4h-1.9v-17.2h2.07v6.41c.83-1.04,1.99-1.55,3.46-1.55s2.62,.56,3.47,1.67,1.26,2.63,1.26,4.57v.18h0Zm-2.07-.23c0-1.41-.28-2.5-.82-3.27s-1.33-1.15-2.35-1.15c-1.37,0-2.35,.63-2.95,1.9v5.24c.63,1.27,1.63,1.9,2.96,1.9,1,0,1.77-.39,2.32-1.15,.55-.77,.83-1.93,.83-3.47h0Z"/>
        <path class="cls-1" d="M481.17,130.19l2.83-9.08h2.22l-4.87,13.98c-.75,2.02-1.95,3.02-3.59,3.02l-.39-.03-.77-.15v-1.68l.56,.05c.7,0,1.25-.14,1.64-.43s.71-.8,.97-1.55l.46-1.23-4.32-11.98h2.26l3.02,9.08h0Z"/>
        <path class="cls-1" d="M498.06,124.72l2.04-3.62h3.46l-3.45,5.93,3.59,6.18h-3.47l-2.16-3.81-2.15,3.81h-3.48l3.59-6.18-3.44-5.93h3.47l1.99,3.62h0Z"/>
        <path class="cls-1" d="M510.46,133.45c-1.77,0-3.22-.54-4.34-1.64s-1.68-2.54-1.68-4.36v-.32c0-1.21,.23-2.31,.7-3.26s1.13-1.7,2-2.22c.86-.52,1.85-.78,2.95-.78,1.66,0,2.96,.53,3.91,1.57s1.42,2.53,1.42,4.44v1.32h-7.72c.11,.79,.42,1.42,.95,1.9s1.19,.72,2,.72c1.25,0,2.22-.45,2.92-1.35l1.59,1.78c-.49,.69-1.14,1.22-1.97,1.6s-1.75,.57-2.75,.57h0Zm-.37-9.95c-.64,0-1.17,.22-1.56,.66s-.66,1.06-.77,1.87h4.5v-.26c-.02-.72-.21-1.28-.58-1.67-.37-.4-.91-.59-1.59-.59h0Z"/>
        <path class="cls-1" d="M516.78,127.05c0-1.2,.23-2.28,.7-3.21s1.13-1.67,2-2.19c.87-.52,1.88-.77,3.03-.77,1.64,0,2.97,.5,4,1.5,1.04,1,1.61,2.36,1.73,4.07l.02,.83c0,1.86-.52,3.35-1.55,4.47-1.04,1.13-2.43,1.68-4.18,1.68s-3.14-.56-4.19-1.68-1.56-2.64-1.56-4.57v-.15h0Zm3.24,.23c0,1.15,.22,2.03,.65,2.64,.43,.61,1.05,.91,1.86,.91s1.39-.3,1.84-.9c.44-.6,.66-1.56,.66-2.89,0-1.13-.22-2-.66-2.62-.44-.62-1.06-.93-1.86-.93s-1.4,.31-1.84,.92c-.43,.62-.65,1.57-.65,2.87h0Z"/>
        <path class="cls-1" d="M534.66,128.36l-1.17,1.17v3.69h-3.24v-17.2h3.24v9.53l.62-.81,3.1-3.64h3.89l-4.38,5.05,4.76,7.07h-3.72l-3.11-4.86h0Z"/>
        <path class="cls-1" d="M542.48,117.97c0-.49,.16-.88,.49-1.2s.77-.47,1.33-.47,1,.15,1.32,.47c.33,.32,.49,.71,.49,1.2s-.17,.9-.5,1.21c-.33,.32-.77,.47-1.32,.47s-.98-.15-1.32-.47c-.33-.32-.5-.72-.5-1.21h.02Zm3.44,15.25h-3.25v-12.11h3.25v12.11Z"/>
        <path class="cls-1" d="M552.46,118.13v2.98h2.07v2.37h-2.07v6.05c0,.45,.09,.77,.26,.96s.5,.29,.99,.29c.36,0,.67-.02,.96-.08v2.45c-.63,.19-1.29,.29-1.96,.29-2.27,0-3.42-1.15-3.47-3.44v-6.53h-1.77v-2.37h1.77v-2.98h3.23Z"/>
      </g>
    </g>
    <path class="cls-2" d="M646.58,109.55l-7.36,30.83h-68.48l7.37-30.83h68.48m3.8-3h-74.65l-8.8,36.83h74.65l8.79-36.83h0Z"/>
    <g>
      <path class="cls-2" d="M586.52,133.17v-16.35h5.6c1.85,0,3.26,.37,4.22,1.11,.97,.74,1.45,1.85,1.45,3.31,0,.75-.2,1.42-.61,2.02s-1,1.06-1.77,1.39c.88,.24,1.57,.69,2.05,1.35,.48,.66,.72,1.46,.72,2.39,0,1.54-.49,2.71-1.48,3.54s-2.39,1.24-4.23,1.24h-5.96Zm2.84-9.47h2.79c.88,0,1.57-.2,2.07-.6s.75-.97,.75-1.7c0-.81-.23-1.39-.69-1.75-.46-.36-1.18-.54-2.15-.54h-2.76v4.59Zm0,2.09v5.11h3.16c.89,0,1.59-.22,2.09-.66,.5-.44,.75-1.05,.75-1.84,0-1.7-.87-2.57-2.61-2.61h-3.39Z"/>
      <path class="cls-2" d="M606.12,133.39c-1.73,0-3.13-.54-4.21-1.63-1.07-1.09-1.61-2.54-1.61-4.35v-.34c0-1.21,.23-2.3,.7-3.25,.47-.95,1.12-1.7,1.97-2.23,.85-.53,1.79-.8,2.83-.8,1.65,0,2.93,.53,3.83,1.58,.9,1.06,1.35,2.55,1.35,4.48v1.1h-7.94c.08,1,.42,1.8,1,2.38s1.33,.88,2.22,.88c1.25,0,2.27-.5,3.05-1.52l1.47,1.4c-.49,.73-1.14,1.29-1.95,1.69s-1.72,.6-2.73,.6Zm-.33-10.41c-.75,0-1.35,.26-1.81,.79-.46,.52-.75,1.25-.88,2.19h5.2v-.2c-.06-.91-.3-1.6-.73-2.07s-1.02-.7-1.77-.7Z"/>
      <path class="cls-2" d="M616.53,118.06v2.95h2.14v2.02h-2.14v6.78c0,.46,.09,.8,.27,1s.51,.31,.98,.31c.31,0,.63-.04,.95-.11v2.11c-.62,.17-1.22,.26-1.8,.26-2.1,0-3.14-1.16-3.14-3.47v-6.88h-2v-2.02h2v-2.95h2.73Z"/>
      <path class="cls-2" d="M628.02,133.17c-.12-.23-.22-.61-.31-1.13-.87,.91-1.93,1.36-3.19,1.36s-2.22-.35-2.99-1.04c-.77-.7-1.16-1.56-1.16-2.58,0-1.3,.48-2.29,1.44-2.98s2.34-1.04,4.13-1.04h1.67v-.8c0-.63-.18-1.13-.53-1.51s-.89-.57-1.61-.57c-.62,0-1.13,.16-1.53,.47-.4,.31-.6,.71-.6,1.18h-2.73c0-.67,.22-1.29,.66-1.87s1.04-1.04,1.8-1.36,1.61-.49,2.54-.49c1.42,0,2.56,.36,3.4,1.07s1.28,1.72,1.3,3.02v5.48c0,1.09,.15,1.97,.46,2.62v.19h-2.79Zm-3-1.96c.54,0,1.05-.13,1.52-.39s.83-.61,1.07-1.06v-2.29h-1.47c-1.01,0-1.77,.18-2.28,.53-.51,.35-.76,.85-.76,1.49,0,.52,.17,.94,.52,1.25,.35,.31,.81,.47,1.4,.47Z"/>
    </g>
  </g>
</svg>