<svg width="184" height="40" viewBox="0 0 184 40" fill="none" xmlns="http://www.w3.org/2000/svg">
<path d="M65.8104 16.3925L68.45 11.7754H72.9284L68.4641 19.3525L73.1179 27.2448H68.6225L65.8246 22.385L63.0408 27.2448H58.5312L63.1851 19.3525L58.7349 11.7754H63.2303L65.8104 16.3925Z" fill="#F4F2FF"/>
<path d="M82.1626 27.5298C79.8625 27.5298 77.9897 26.8352 76.544 25.4431C75.0984 24.051 74.377 22.1986 74.377 19.883V19.4841C74.377 17.9302 74.6825 16.5409 75.2907 15.3162C75.899 14.0914 76.7619 13.1485 77.8765 12.4873C78.9912 11.8261 80.2642 11.4941 81.6958 11.4941C83.8402 11.4941 85.5292 12.1609 86.7626 13.4944C87.9933 14.8307 88.61 16.7194 88.61 19.1716V20.8567H78.6234C78.7592 21.8666 79.1666 22.6784 79.8484 23.2866C80.5302 23.8975 81.3931 24.2016 82.4342 24.2016C84.0467 24.2016 85.3113 23.6269 86.2195 22.472L88.279 24.7456C87.651 25.6216 86.7994 26.3079 85.7272 26.7961C84.655 27.2843 83.4639 27.5326 82.1597 27.5326L82.1626 27.5298ZM81.6844 14.8196C80.8527 14.8196 80.1794 15.0958 79.6617 15.6537C79.1439 16.2089 78.8129 17.004 78.6687 18.0362H84.4965V17.707C84.4767 16.7864 84.225 16.0778 83.7412 15.5756C83.2574 15.0734 82.5728 14.8224 81.6816 14.8224L81.6844 14.8196Z" fill="#F4F2FF"/>
<path d="M90.3379 19.3658C90.3379 17.8314 90.6378 16.4644 91.2375 15.262C91.8373 14.0596 92.6973 13.1334 93.8233 12.475C94.9493 11.8166 96.2563 11.4902 97.7444 11.4902C99.8605 11.4902 101.589 12.1291 102.927 13.404C104.265 14.679 105.012 16.417 105.168 18.607L105.196 19.6643C105.196 22.0384 104.526 23.9411 103.182 25.375C101.838 26.809 100.036 27.5259 97.7755 27.5259C95.5151 27.5259 93.7101 26.8118 92.3607 25.3806C91.014 23.9522 90.3379 22.005 90.3379 19.5499V19.3658ZM94.5277 19.6587C94.5277 21.129 94.8078 22.2532 95.368 23.0288C95.9281 23.8072 96.7288 24.1949 97.7755 24.1949C98.8223 24.1949 99.5833 23.8099 100.152 23.0428C100.721 22.2728 101.006 21.0453 101.006 19.3547C101.006 17.9151 100.721 16.7964 100.152 16.0041C99.5833 15.2118 98.7798 14.8157 97.7444 14.8157C96.709 14.8157 95.9281 15.209 95.368 15.9957C94.8078 16.7853 94.5277 18.0016 94.5277 19.6532V19.6587Z" fill="#F4F2FF"/>
<path d="M113.432 22.1953L116.346 11.7754H120.726L115.435 27.2448H111.435L106.145 11.7754H110.524L113.438 22.1953H113.432Z" fill="#6E12FF"/>
<path d="M122.536 7.77202C122.536 7.15269 122.745 6.64216 123.167 6.24043C123.586 5.84149 124.16 5.64062 124.884 5.64062C125.608 5.64062 126.169 5.84149 126.593 6.24043C127.017 6.63937 127.229 7.1499 127.229 7.77202C127.229 8.39415 127.014 8.91584 126.584 9.31478C126.154 9.71372 125.586 9.91458 124.881 9.91458C124.177 9.91458 123.608 9.71372 123.178 9.31478C122.748 8.91584 122.533 8.39973 122.533 7.77202H122.536ZM126.986 27.2448H122.782V11.7754H126.986V27.2448Z" fill="#6E12FF"/>
<path d="M138.93 22.9683C138.93 22.4633 138.675 22.0644 138.169 21.7742C137.663 21.4841 136.848 21.2246 135.728 20.9959C131.996 20.2231 130.132 18.6608 130.132 16.3062C130.132 14.9337 130.709 13.7871 131.863 12.8692C133.017 11.9514 134.528 11.4883 136.392 11.4883C138.384 11.4883 139.974 11.9514 141.168 12.8748C142.362 13.801 142.959 15.0006 142.959 16.4792H138.769C138.769 15.8878 138.574 15.3996 138.189 15.0146C137.804 14.6296 137.196 14.4343 136.375 14.4343C135.671 14.4343 135.125 14.5933 134.737 14.9058C134.353 15.221 134.157 15.62 134.157 16.1054C134.157 16.5629 134.378 16.9339 134.817 17.2129C135.255 17.4947 135.999 17.7374 137.04 17.9439C138.084 18.1475 138.964 18.3791 139.68 18.6357C141.892 19.4364 142.998 20.8229 142.998 22.7953C142.998 24.2069 142.384 25.3452 141.157 26.2184C139.929 27.0916 138.344 27.5268 136.401 27.5268C135.085 27.5268 133.92 27.2952 132.898 26.8349C131.877 26.3746 131.079 25.7413 130.499 24.9351C129.919 24.1288 129.631 23.2612 129.631 22.3266H133.603C133.64 23.0603 133.917 23.6239 134.429 24.0116C134.941 24.4022 135.626 24.5975 136.489 24.5975C137.289 24.5975 137.897 24.4469 138.308 24.1456C138.718 23.8443 138.924 23.4537 138.924 22.9655L138.93 22.9683Z" fill="#6E12FF"/>
<path d="M145.673 7.77202C145.673 7.15269 145.882 6.64216 146.304 6.24043C146.722 5.84149 147.297 5.64062 148.021 5.64062C148.745 5.64062 149.305 5.84149 149.73 6.24043C150.154 6.63937 150.366 7.1499 150.366 7.77202C150.366 8.39415 150.151 8.91584 149.721 9.31478C149.291 9.71372 148.722 9.91458 148.018 9.91458C147.314 9.91458 146.745 9.71372 146.315 9.31478C145.885 8.91584 145.67 8.39973 145.67 7.77202H145.673ZM150.123 27.2448H145.919V11.7754H150.123V27.2448Z" fill="#6E12FF"/>
<path d="M152.92 19.3658C152.92 17.8314 153.22 16.4644 153.82 15.262C154.419 14.0624 155.279 13.1334 156.405 12.475C157.531 11.8166 158.838 11.4902 160.326 11.4902C162.443 11.4902 164.171 12.1291 165.509 13.404C166.847 14.6818 167.594 16.417 167.75 18.607L167.778 19.6643C167.778 22.0384 167.108 23.9411 165.764 25.375C164.42 26.809 162.618 27.5259 160.358 27.5259C158.097 27.5259 156.292 26.8118 154.943 25.3806C153.596 23.9522 152.92 22.005 152.92 19.5499V19.3658ZM157.11 19.6587C157.11 21.129 157.39 22.2532 157.95 23.0288C158.51 23.8072 159.311 24.1949 160.358 24.1949C161.404 24.1949 162.165 23.8099 162.734 23.0428C163.303 22.2728 163.588 21.0453 163.588 19.3547C163.588 17.9151 163.303 16.7964 162.734 16.0041C162.165 15.2118 161.362 14.8157 160.326 14.8157C159.291 14.8157 158.51 15.209 157.95 15.9957C157.39 16.7853 157.11 18.0016 157.11 19.6532V19.6587Z" fill="#6E12FF"/>
<path d="M174.218 11.7748L174.348 13.563C175.469 12.1821 176.974 11.4902 178.858 11.4902C180.521 11.4902 181.758 11.9729 182.57 12.9353C183.382 13.8978 183.797 15.3374 183.817 17.2539V27.247H179.627V17.3516C179.627 16.4756 179.432 15.8395 179.047 15.4434C178.663 15.0472 178.018 14.8491 177.121 14.8491C175.941 14.8491 175.056 15.3457 174.467 16.3361V27.2442H170.277V11.7748H174.221H174.218Z" fill="#6E12FF"/>
<path d="M13.3589 24.7482L0 0L10.8863 6.34398L18.2701 6.73455L25.1391 3.24173L37.075 10.3669L42.5181 8.29683L49.1297 18.0165L40.5802 22.4271L36.8204 29.6889L23.9934 35.1346L19.9761 25.5321L13.3645 24.751L13.3589 24.7482Z" fill="#6E12FF"/>
<path d="M19.302 9.54427L10.6168 9.26808L4.92188 5.72226L5.44808 4.89648L10.9167 8.30003L19.3332 8.56785L19.302 9.54427Z" fill="white"/>
<path d="M5.45421 4.89791L4.91797 5.71875L19.8227 15.1872L20.359 14.3664L5.45421 4.89791Z" fill="white"/>
<path d="M21.4698 23.9248L14.4735 22.993L10.8495 16.5737L4.75 5.5429L5.62135 5.07422L11.718 16.1023L15.0987 22.0919L21.6 22.9568L21.4698 23.9248Z" fill="white"/>
<path d="M19.7002 14.4852L14.375 22.2734L15.196 22.8193L20.5212 15.0311L19.7002 14.4852Z" fill="white"/>
<path d="M29.5982 14.9553L21.168 23.1133L21.8615 23.8102L30.2917 15.6522L29.5982 14.9553Z" fill="white"/>
<path d="M24.7542 32.5427L21.0566 23.646L21.9733 23.275L25.2833 31.2426L30.1408 29.1056L34.9078 27.217L38.1697 20.3848L39.0637 20.7977L35.6348 27.9786L30.5255 30.004L24.7542 32.5427Z" fill="white"/>
<path d="M30.381 15.0885L29.4707 15.4727L34.8159 27.7887L35.7263 27.4045L30.381 15.0885Z" fill="white"/>
<path d="M30.207 14.8868L29.6855 15.7168L38.3746 21.0253L38.896 20.1952L30.207 14.8868Z" fill="white"/>
<path d="M36.6395 13.5332L25.0035 6.65079L19.549 9.50754L19.0879 8.64549L25.0318 5.5293L36.7526 12.4647L41.5818 10.8215L41.9072 11.7422L36.6395 13.5332Z" fill="white"/>
<path d="M38.8495 21.0521L38.4223 20.1733L45.0367 17.0376L41.5456 11.8654L30.1105 15.7627L29.7852 14.8421L41.9445 10.6992L46.488 17.431L38.8495 21.0521Z" fill="white"/>
<path d="M19.7016 8.76648L18.9336 9.38281L23.8623 15.3548L24.6303 14.7385L19.7016 8.76648Z" fill="white"/>
<path d="M20.1236 14.2891L20.0625 15.2637L24.2189 15.5172L24.2801 14.5427L20.1236 14.2891Z" fill="white"/>
<path d="M24.2692 14.5402L24.2246 15.5156L29.9251 15.7689L29.9696 14.7935L24.2692 14.5402Z" fill="white"/>
<path d="M24.526 6.43878L23.7539 14.9863L24.7402 15.073L25.5122 6.52541L24.526 6.43878Z" fill="white"/>
<path d="M5.0534 6.08646L3.72656 3.81836L6.08035 5.28579L5.0534 6.08646Z" fill="white"/>
<path d="M160.794 39.9994H97.8047L100.294 29.7246H163.281L160.794 39.9994Z" fill="#6E12FF"/>
<path d="M105.2 35.3855V37.1654H104.592V32.6152H106.295C106.798 32.6152 107.195 32.7408 107.48 32.9974C107.766 33.2541 107.907 33.5861 107.907 34.0073C107.907 34.4286 107.769 34.7885 107.489 35.0284C107.209 35.2683 106.81 35.3855 106.286 35.3855H105.2ZM105.2 34.8945H106.292C106.617 34.8945 106.866 34.8192 107.039 34.6685C107.214 34.5179 107.296 34.2975 107.296 34.0129C107.296 33.7284 107.209 33.5247 107.039 33.3629C106.864 33.2011 106.629 33.1174 106.326 33.109H105.2V34.8945Z" fill="#F4F2FF"/>
<path d="M108.397 35.444C108.397 35.112 108.462 34.8163 108.595 34.5484C108.728 34.2834 108.912 34.0798 109.147 33.9375C109.382 33.7924 109.651 33.7227 109.953 33.7227C110.42 33.7227 110.799 33.8817 111.085 34.2025C111.371 34.5233 111.518 34.9446 111.518 35.4746V35.5165C111.518 35.8457 111.453 36.1386 111.325 36.4009C111.198 36.6631 111.014 36.8667 110.777 37.0118C110.539 37.1569 110.265 37.2322 109.956 37.2322C109.492 37.2322 109.116 37.0732 108.827 36.7524C108.539 36.4315 108.395 36.0103 108.395 35.4886V35.4467L108.397 35.444ZM108.986 35.5109C108.986 35.8847 109.074 36.186 109.249 36.4148C109.424 36.6408 109.662 36.7552 109.956 36.7552C110.25 36.7552 110.491 36.6408 110.666 36.4092C110.842 36.1777 110.929 35.8568 110.929 35.4412C110.929 35.0701 110.839 34.7716 110.661 34.5401C110.482 34.3085 110.245 34.1941 109.951 34.1941C109.656 34.1941 109.427 34.3057 109.249 34.5345C109.071 34.7632 108.983 35.0869 108.983 35.5081L108.986 35.5109Z" fill="#F4F2FF"/>
<path d="M115.289 36.3665L115.948 33.7832H116.534L115.535 37.1616H115.06L114.226 34.6006L113.414 37.1616H112.938L111.945 33.7832H112.528L113.204 36.3135L114.005 33.7832H114.477L115.289 36.3665Z" fill="#F4F2FF"/>
<path d="M118.55 37.2286C118.086 37.2286 117.706 37.0779 117.415 36.7766C117.124 36.4753 116.977 36.0736 116.977 35.5715V35.4654C116.977 35.1307 117.042 34.8294 117.172 34.5671C117.302 34.3021 117.483 34.0984 117.718 33.9478C117.953 33.7971 118.204 33.7246 118.476 33.7246C118.923 33.7246 119.268 33.8697 119.517 34.157C119.766 34.4444 119.888 34.8628 119.888 35.3985V35.6384H117.565C117.573 35.9704 117.673 36.241 117.859 36.4474C118.046 36.6539 118.286 36.7543 118.581 36.7543C118.787 36.7543 118.963 36.7125 119.107 36.6288C119.251 36.5451 119.378 36.4335 119.486 36.2968L119.842 36.573C119.557 37.0082 119.127 37.2258 118.55 37.2258V37.2286ZM118.476 34.1989C118.241 34.1989 118.04 34.2854 117.879 34.4527C117.718 34.6229 117.622 34.8628 117.582 35.1669H119.299V35.1251C119.282 34.8322 119.203 34.6034 119.059 34.4416C118.914 34.2798 118.719 34.1989 118.476 34.1989Z" fill="#F4F2FF"/>
<path d="M122.222 34.3018C122.132 34.2879 122.036 34.2795 121.934 34.2795C121.549 34.2795 121.289 34.4385 121.15 34.7621V37.1614H120.564V33.7829H121.136L121.144 34.1735C121.337 33.8722 121.608 33.7188 121.962 33.7188C122.075 33.7188 122.163 33.7327 122.219 33.7606V34.299L122.222 34.3018Z" fill="#F4F2FF"/>
<path d="M124.124 37.2286C123.66 37.2286 123.281 37.0779 122.989 36.7766C122.698 36.4753 122.551 36.0736 122.551 35.5715V35.4654C122.551 35.1307 122.616 34.8294 122.746 34.5671C122.876 34.3021 123.057 34.0984 123.292 33.9478C123.527 33.7971 123.779 33.7246 124.05 33.7246C124.497 33.7246 124.842 33.8697 125.091 34.157C125.34 34.4444 125.462 34.8628 125.462 35.3985V35.6384H123.139C123.148 35.9704 123.247 36.241 123.433 36.4474C123.62 36.6539 123.861 36.7543 124.155 36.7543C124.361 36.7543 124.537 36.7125 124.681 36.6288C124.825 36.5451 124.953 36.4335 125.06 36.2968L125.417 36.573C125.131 37.0082 124.701 37.2258 124.124 37.2258V37.2286ZM124.05 34.1989C123.815 34.1989 123.615 34.2854 123.453 34.4527C123.292 34.6229 123.196 34.8628 123.156 35.1669H124.873V35.1251C124.856 34.8322 124.777 34.6034 124.633 34.4416C124.489 34.2798 124.293 34.1989 124.05 34.1989Z" fill="#F4F2FF"/>
<path d="M125.994 35.4452C125.994 34.9263 126.119 34.5106 126.368 34.1925C126.617 33.8745 126.942 33.7211 127.346 33.7211C127.751 33.7211 128.065 33.8578 128.3 34.1284V32.3652H128.885V37.1637H128.348L128.32 36.801C128.085 37.0828 127.759 37.225 127.341 37.225C126.922 37.225 126.619 37.066 126.37 36.7452C126.121 36.4244 125.994 36.0059 125.994 35.4898V35.448V35.4452ZM126.58 35.5093C126.58 35.8943 126.659 36.1928 126.82 36.4076C126.981 36.6252 127.202 36.734 127.485 36.734C127.856 36.734 128.13 36.5694 128.297 36.2403V34.6891C128.122 34.3711 127.853 34.2093 127.488 34.2093C127.202 34.2093 126.976 34.3181 126.817 34.5357C126.659 34.7533 126.577 35.0769 126.577 35.5065L126.58 35.5093Z" fill="#F4F2FF"/>
<path d="M134.306 35.513C134.306 36.0291 134.184 36.4447 133.944 36.7572C133.703 37.0697 133.381 37.2259 132.976 37.2259C132.544 37.2259 132.21 37.0752 131.972 36.7711L131.944 37.1617H131.406V32.3633H131.992V34.1515C132.227 33.8614 132.555 33.7191 132.971 33.7191C133.387 33.7191 133.712 33.8753 133.952 34.185C134.193 34.4947 134.309 34.9187 134.309 35.4599V35.5102L134.306 35.513ZM133.72 35.4488C133.72 35.0554 133.641 34.7513 133.488 34.5365C133.336 34.3217 133.112 34.2157 132.824 34.2157C132.436 34.2157 132.159 34.3915 131.989 34.7458V36.2076C132.167 36.5619 132.45 36.7377 132.826 36.7377C133.109 36.7377 133.327 36.6289 133.483 36.4168C133.638 36.202 133.718 35.8784 133.718 35.4488H133.72Z" fill="#F4F2FF"/>
<path d="M136.127 36.3183L136.927 33.7852H137.555L136.178 37.6853C135.966 38.2488 135.626 38.5278 135.162 38.5278L135.052 38.5194L134.834 38.4776V38.0089L134.992 38.0228C135.19 38.0228 135.346 37.9838 135.456 37.9029C135.567 37.822 135.657 37.6797 135.731 37.4705L135.861 37.1273L134.639 33.7852H135.278L136.132 36.3183H136.127Z" fill="#F4F2FF"/>
<path d="M140.906 34.7931L141.483 33.7832H142.462L141.486 35.4375L142.502 37.1616H141.52L140.909 36.0987L140.301 37.1616H139.316L140.332 35.4375L139.359 33.7832H140.341L140.904 34.7931H140.906Z" fill="#F4F2FF"/>
<path d="M144.414 37.2283C143.913 37.2283 143.503 37.0777 143.186 36.7708C142.869 36.4639 142.711 36.0622 142.711 35.5544V35.4652C142.711 35.1276 142.776 34.8207 142.909 34.5557C143.042 34.2907 143.229 34.0814 143.475 33.9364C143.718 33.7913 143.998 33.7188 144.309 33.7188C144.779 33.7188 145.147 33.8666 145.416 34.1567C145.684 34.4469 145.817 34.8626 145.817 35.3954V35.7637H143.633C143.664 35.9841 143.752 36.1598 143.902 36.2937C144.052 36.4276 144.239 36.4946 144.468 36.4946C144.821 36.4946 145.096 36.369 145.294 36.118L145.744 36.6146C145.605 36.807 145.421 36.9549 145.186 37.0609C144.952 37.1669 144.691 37.2199 144.408 37.2199L144.414 37.2283ZM144.309 34.4525C144.128 34.4525 143.978 34.5138 143.868 34.6366C143.758 34.7593 143.681 34.9323 143.65 35.1583H144.923V35.0857C144.918 34.8849 144.864 34.7287 144.759 34.6199C144.655 34.5083 144.502 34.4553 144.309 34.4553V34.4525Z" fill="#F4F2FF"/>
<path d="M146.201 35.444C146.201 35.1092 146.266 34.8079 146.399 34.5484C146.532 34.289 146.719 34.0825 146.965 33.9375C147.211 33.7924 147.497 33.7227 147.822 33.7227C148.286 33.7227 148.662 33.8621 148.954 34.1411C149.248 34.4201 149.409 34.7995 149.443 35.2766L149.449 35.5081C149.449 36.027 149.302 36.4427 149.01 36.7552C148.716 37.0704 148.323 37.2238 147.828 37.2238C147.333 37.2238 146.94 37.0676 146.643 36.7552C146.345 36.4427 146.201 36.0187 146.201 35.4802V35.4384V35.444ZM147.118 35.5081C147.118 35.8289 147.18 36.0744 147.302 36.2446C147.423 36.4148 147.599 36.4985 147.828 36.4985C148.057 36.4985 148.221 36.4148 148.348 36.2474C148.473 36.08 148.535 35.8122 148.535 35.4412C148.535 35.1259 148.473 34.8832 148.348 34.7102C148.224 34.5373 148.049 34.4508 147.822 34.4508C147.596 34.4508 147.426 34.5373 147.302 34.7075C147.18 34.8804 147.118 35.1454 147.118 35.5081Z" fill="#F4F2FF"/>
<path d="M151.259 35.8078L150.928 36.1342V37.1637H150.012V32.3652H150.928V35.0239L151.104 34.7979L151.981 33.7824H153.081L151.842 35.1913L153.189 37.1637H152.136L151.257 35.8078H151.259Z" fill="#F4F2FF"/>
<path d="M153.472 32.9093C153.472 32.7726 153.517 32.6638 153.61 32.5745C153.704 32.4852 153.828 32.4434 153.986 32.4434C154.145 32.4434 154.269 32.4852 154.36 32.5745C154.453 32.6638 154.499 32.7726 154.499 32.9093C154.499 33.046 154.45 33.1603 154.357 33.2468C154.264 33.3361 154.139 33.3779 153.984 33.3779C153.828 33.3779 153.706 33.3361 153.61 33.2468C153.517 33.1575 153.469 33.046 153.469 32.9093H153.474H153.472ZM154.445 37.1637H153.525V33.7852H154.445V37.1637Z" fill="#F4F2FF"/>
<path d="M156.296 32.954V33.7853H156.882V34.4465H156.296V36.1343C156.296 36.2599 156.322 36.3491 156.37 36.4021C156.418 36.4551 156.511 36.483 156.65 36.483C156.752 36.483 156.84 36.4775 156.922 36.4607V37.1442C156.743 37.1972 156.557 37.2251 156.367 37.2251C155.725 37.2251 155.4 36.9043 155.386 36.2654V34.4437H154.885V33.7825H155.386V32.9512H156.299L156.296 32.954Z" fill="#F4F2FF"/>
<path d="M182.921 30.5615L180.839 39.1625H161.466L163.551 30.5615H182.924M183.999 29.7246H162.88L160.391 39.9994H181.51L183.996 29.7246H183.999Z" fill="#6E12FF"/>
<path d="M165.931 37.1511V32.5898H167.515C168.038 32.5898 168.437 32.6931 168.709 32.8995C168.983 33.106 169.119 33.4156 169.119 33.8229C169.119 34.0322 169.062 34.2191 168.946 34.3865C168.83 34.5539 168.663 34.6822 168.446 34.7742C168.695 34.8412 168.89 34.9667 169.026 35.1509C169.161 35.335 169.229 35.5582 169.229 35.8176C169.229 36.2473 169.091 36.5737 168.811 36.8052C168.53 37.0368 168.134 37.1511 167.614 37.1511H165.928H165.931ZM166.734 34.5092H167.523C167.772 34.5092 167.967 34.4534 168.109 34.3418C168.25 34.2302 168.321 34.0712 168.321 33.8676C168.321 33.6416 168.256 33.4798 168.126 33.3794C167.996 33.2789 167.792 33.2287 167.518 33.2287H166.737V34.5092H166.734ZM166.734 35.0923V36.5179H167.628C167.88 36.5179 168.078 36.4565 168.219 36.3337C168.361 36.211 168.431 36.0408 168.431 35.8204C168.431 35.3462 168.185 35.1034 167.693 35.0923H166.734Z" fill="#F4F2FF"/>
<path d="M171.475 37.2124C170.985 37.2124 170.589 37.0617 170.284 36.7577C169.981 36.4536 169.828 36.0491 169.828 35.5441V35.4493C169.828 35.1117 169.893 34.8076 170.026 34.5426C170.159 34.2775 170.343 34.0683 170.583 33.9204C170.824 33.7726 171.09 33.6973 171.384 33.6973C171.851 33.6973 172.213 33.8451 172.468 34.1381C172.722 34.4338 172.85 34.8494 172.85 35.3879V35.6948H170.603C170.626 35.9737 170.722 36.1969 170.886 36.3587C171.05 36.5205 171.262 36.6042 171.514 36.6042C171.868 36.6042 172.156 36.4647 172.377 36.1802L172.793 36.5707C172.654 36.7744 172.47 36.9306 172.241 37.0422C172.012 37.1538 171.755 37.2096 171.469 37.2096L171.475 37.2124ZM171.381 34.3082C171.169 34.3082 170.999 34.3808 170.869 34.5286C170.739 34.6737 170.657 34.8773 170.62 35.1396H172.091V35.0838C172.074 34.8299 172.007 34.6374 171.885 34.5063C171.763 34.3752 171.596 34.311 171.384 34.311L171.381 34.3082Z" fill="#F4F2FF"/>
<path d="M174.421 32.9355V33.7585H175.026V34.3221H174.421V36.2135C174.421 36.3419 174.447 36.4367 174.497 36.4925C174.548 36.5483 174.642 36.579 174.775 36.579C174.862 36.579 174.953 36.5679 175.043 36.5483V37.137C174.868 37.1844 174.698 37.2095 174.534 37.2095C173.94 37.2095 173.646 36.8859 173.646 36.2414V34.3221H173.08V33.7585H173.646V32.9355H174.418H174.421Z" fill="#F4F2FF"/>
<path d="M177.672 37.1513C177.638 37.0871 177.61 36.9811 177.584 36.8361C177.338 37.0899 177.038 37.2155 176.682 37.2155C176.325 37.2155 176.054 37.1178 175.836 36.9253C175.618 36.73 175.508 36.4901 175.508 36.2056C175.508 35.8429 175.644 35.5667 175.915 35.3742C176.187 35.1817 176.577 35.0841 177.084 35.0841H177.556V34.8609C177.556 34.6851 177.505 34.5456 177.406 34.4396C177.307 34.3336 177.154 34.2806 176.951 34.2806C176.775 34.2806 176.631 34.3252 176.518 34.4117C176.405 34.4982 176.348 34.6098 176.348 34.7409H175.576C175.576 34.554 175.638 34.381 175.762 34.2192C175.887 34.0574 176.057 33.9291 176.272 33.8398C176.487 33.7506 176.727 33.7031 176.99 33.7031C177.392 33.7031 177.714 33.8036 177.952 34.0016C178.19 34.1997 178.314 34.4815 178.32 34.8441V36.373C178.32 36.677 178.362 36.9225 178.45 37.1039V37.1569H177.661L177.672 37.1513ZM176.823 36.6045C176.976 36.6045 177.12 36.5682 177.253 36.4957C177.386 36.4232 177.488 36.3255 177.556 36.2V35.5611H177.14C176.854 35.5611 176.639 35.6113 176.495 35.709C176.351 35.8066 176.28 35.9461 176.28 36.1247C176.28 36.2697 176.328 36.3869 176.427 36.4734C176.526 36.5599 176.656 36.6045 176.823 36.6045Z" fill="#F4F2FF"/>
</svg>
